<svg width="77" height="168" viewBox="0 0 77 168" fill="none" xmlns="http://www.w3.org/2000/svg">
<path d="M23.24 160.76V155.79C23.24 151.2 22.33 147.73 20.54 145.49C18.73 143.22 15.88 142.07 12.09 142.07C8.3 142.07 5.37 143.21 3.51 145.45C1.68 147.67 0.75 151.17 0.75 155.85V166.81H32.27V160.76H23.24ZM6.3 160.76V155.98C6.3 153.19 6.72 151.16 7.54 149.94C8.34 148.76 9.68 148.18 11.64 148.18C13.77 148.18 15.33 148.7 16.29 149.71C17.25 150.73 17.74 152.59 17.74 155.22V160.76H6.3Z" fill="#F4F4F4"/>
<path d="M6.18 118.58V112.31H32.28V106.57H0.75V118.58H6.18Z" fill="#F4F4F4"/>
<path d="M18.18 53.1501C20.87 53.1501 23.01 53.8201 24.55 55.1501C26.1 56.4801 26.85 58.2301 26.85 60.5101C26.85 62.7901 26.1 64.5901 24.54 65.9001C23.04 67.2401 20.9 67.9301 18.17 67.9301H0.75V73.9201H18.37C22.81 73.9201 26.33 72.6801 28.83 70.2201C31.33 67.7701 32.59 64.5001 32.59 60.5101C32.59 56.5201 31.32 53.2501 28.83 50.8001C26.33 48.3501 22.81 47.1001 18.37 47.1001H0.75V53.1501H18.18Z" fill="#F4F4F4"/>
<path d="M30.05 3.20012C28.3 1.08012 25.98 0.00012207 23.14 0.00012207C20.3 0.00012207 18.32 0.820122 16.87 2.43012C15.45 4.00012 14.32 6.50012 13.51 9.86012C12.77 12.9301 12.06 14.9501 11.36 15.8901C10.85 16.7201 10.05 17.1301 8.9 17.1301C7.87 17.1301 7.09 16.7301 6.52 15.9001C5.92 15.0301 5.62 13.8601 5.62 12.4101C5.62 10.9601 5.88 9.46012 6.38 7.97012C6.88 6.48012 7.54 5.29012 8.33 4.42012L8.65 4.07012L4.05 0.790122L3.8 1.09012C1.28 4.17012 0 7.91012 0 12.2201C0 15.4401 0.82 18.1201 2.44 20.2001C4.09 22.3101 6.38 23.3701 9.27 23.3701C12.16 23.3701 14.48 22.4101 15.94 20.5201C17.23 18.9301 18.36 16.0901 19.28 12.0701C19.81 9.84012 20.4 8.28012 21.03 7.43012C21.62 6.64012 22.41 6.25012 23.45 6.25012C24.49 6.25012 25.31 6.69012 25.96 7.58012C26.64 8.50012 26.98 9.75012 26.98 11.2801C26.98 14.4201 25.64 17.5801 23 20.6701L22.72 20.9901L27.25 24.7901L27.52 24.4801C30.92 20.6101 32.64 16.2101 32.64 11.4001C32.64 8.05012 31.76 5.29012 30.03 3.19012L30.05 3.20012Z" fill="#F4F4F4"/>
<path d="M43.7202 109.2C43.7202 113.89 45.2902 117.88 48.3902 121.04C51.4902 124.21 55.4002 125.81 60.0202 125.81C64.6402 125.81 68.5502 124.21 71.6502 121.04C74.7502 117.88 76.3202 113.9 76.3202 109.2C76.3202 104.5 74.7402 100.63 71.6202 97.4301C68.5402 94.2201 64.6402 92.5901 60.0202 92.5901C55.4002 92.5901 51.5002 94.1901 48.3902 97.3601C45.2902 100.52 43.7202 104.51 43.7202 109.2ZM70.7002 109.2C70.7002 112.12 69.6602 114.61 67.6002 116.61C65.5402 118.61 62.9902 119.63 60.0202 119.63C57.0502 119.63 54.4902 118.61 52.4102 116.61C50.3302 114.61 49.2802 112.12 49.2802 109.2C49.2802 106.28 50.3302 103.79 52.4102 101.79C54.4902 99.7901 57.0502 98.7701 60.0202 98.7701C62.9902 98.7701 65.5402 99.7901 67.6002 101.79C69.6602 103.79 70.7002 106.28 70.7002 109.2Z" fill="#F4F4F4"/>
<path d="M65.9402 52.5202L45.2402 68.6302V74.1002H74.7802V68.4202H54.5502L74.7802 52.7302V46.9102H45.2402V52.5202H65.9402Z" fill="#F4F4F4"/>
<path d="M62.66 17.8101V3.13011H57.24V17.8101H49.92V1.43011H44.25V23.8601H75.77V0.930115H70.03V17.8101H62.66Z" fill="#F4F4F4"/>
<path d="M72.13 153.7L64.49 151.76C63.84 151.59 63.33 151.09 63.16 150.43L61.22 142.79C60.95 141.72 59.42 141.72 59.15 142.79L57.21 150.43C57.04 151.08 56.54 151.59 55.88 151.76L48.24 153.7C47.17 153.97 47.17 155.5 48.24 155.77L55.88 157.71C56.53 157.88 57.04 158.38 57.21 159.04L59.15 166.68C59.42 167.75 60.95 167.75 61.22 166.68L63.16 159.04C63.33 158.39 63.83 157.88 64.49 157.71L72.13 155.77C73.2 155.5 73.2 153.97 72.13 153.7Z" fill="#F4F4F4"/>
</svg>
