<svg width="168" height="77" viewBox="0 0 168 77" fill="none" xmlns="http://www.w3.org/2000/svg">
<path d="M6.72249 23.24L11.6925 23.24C16.2825 23.24 19.7525 22.33 21.9925 20.54C24.2625 18.73 25.4125 15.88 25.4125 12.09C25.4125 8.3 24.2725 5.37 22.0325 3.51C19.8125 1.68 16.3125 0.75 11.6325 0.749999L0.672485 0.749999L0.672484 32.27L6.72249 32.27L6.72249 23.24ZM6.72249 6.3L11.5025 6.3C14.2925 6.3 16.3225 6.72 17.5425 7.54C18.7225 8.34 19.3025 9.68 19.3025 11.64C19.3025 13.77 18.7825 15.33 17.7725 16.29C16.7525 17.25 14.8925 17.74 12.2625 17.74L6.72249 17.74L6.72249 6.3Z" fill="#E4E4E4"/>
<path d="M48.9025 6.18L55.1725 6.18L55.1725 32.28L60.9125 32.28L60.9125 0.75L48.9025 0.749999L48.9025 6.18Z" fill="#E4E4E4"/>
<path d="M114.332 18.18C114.332 20.87 113.662 23.01 112.332 24.55C111.002 26.1 109.252 26.85 106.972 26.85C104.692 26.85 102.892 26.1 101.582 24.54C100.242 23.04 99.5522 20.9 99.5522 18.17L99.5522 0.749999L93.5622 0.749999L93.5622 18.37C93.5622 22.81 94.8022 26.33 97.2622 28.83C99.7122 31.33 102.982 32.59 106.972 32.59C110.962 32.59 114.232 31.32 116.682 28.83C119.132 26.33 120.382 22.81 120.382 18.37L120.382 0.75L114.332 0.75L114.332 18.18Z" fill="#E4E4E4"/>
<path d="M164.282 30.05C166.402 28.3 167.482 25.98 167.482 23.14C167.482 20.3 166.662 18.32 165.052 16.87C163.482 15.45 160.982 14.32 157.622 13.51C154.552 12.77 152.532 12.06 151.592 11.36C150.762 10.85 150.352 10.05 150.352 8.9C150.352 7.87 150.752 7.09 151.582 6.52C152.452 5.92 153.622 5.62 155.072 5.62C156.522 5.62 158.022 5.88 159.512 6.38C161.002 6.88 162.192 7.54 163.062 8.33L163.412 8.65L166.692 4.05L166.392 3.8C163.312 1.28 159.572 -3.45757e-07 155.262 -5.34153e-07C152.042 -6.74904e-07 149.362 0.819999 147.282 2.44C145.172 4.09 144.112 6.38 144.112 9.27C144.112 12.16 145.072 14.48 146.962 15.94C148.552 17.23 151.392 18.36 155.412 19.28C157.642 19.81 159.202 20.4 160.052 21.03C160.842 21.62 161.232 22.41 161.232 23.45C161.232 24.49 160.792 25.31 159.902 25.96C158.982 26.64 157.732 26.98 156.202 26.98C153.062 26.98 149.902 25.64 146.812 23L146.492 22.72L142.692 27.25L143.002 27.52C146.872 30.92 151.272 32.64 156.082 32.64C159.432 32.64 162.192 31.76 164.292 30.03L164.282 30.05Z" fill="#E4E4E4"/>
<path d="M58.2825 43.72C53.5925 43.72 49.6025 45.29 46.4425 48.39C43.2725 51.49 41.6725 55.4 41.6725 60.02C41.6725 64.64 43.2725 68.55 46.4425 71.65C49.6024 74.75 53.5825 76.32 58.2825 76.32C62.9825 76.32 66.8525 74.74 70.0525 71.62C73.2625 68.54 74.8925 64.64 74.8925 60.02C74.8925 55.4 73.2925 51.5 70.1225 48.39C66.9625 45.29 62.9725 43.72 58.2825 43.72ZM58.2825 70.7C55.3625 70.7 52.8725 69.66 50.8725 67.6C48.8725 65.54 47.8525 62.99 47.8525 60.02C47.8525 57.05 48.8725 54.49 50.8725 52.41C52.8725 50.33 55.3625 49.28 58.2825 49.28C61.2025 49.28 63.6925 50.33 65.6925 52.41C67.6925 54.49 68.7125 57.05 68.7125 60.02C68.7125 62.99 67.6925 65.54 65.6925 67.6C63.6925 69.66 61.2025 70.7 58.2825 70.7Z" fill="#E4E4E4"/>
<path d="M114.962 65.94L98.8521 45.24L93.3821 45.24L93.3821 74.78L99.0621 74.78L99.0621 54.55L114.752 74.78L120.572 74.78L120.572 45.24L114.962 45.24L114.962 65.94Z" fill="#E4E4E4"/>
<path d="M149.672 62.66L164.352 62.66L164.352 57.24L149.672 57.24L149.672 49.92L166.052 49.92L166.052 44.25L143.622 44.25L143.622 75.77L166.552 75.77L166.552 70.03L149.672 70.03L149.672 62.66Z" fill="#E4E4E4"/>
<path d="M13.7825 72.13L15.7225 64.49C15.8925 63.84 16.3925 63.33 17.0525 63.16L24.6925 61.22C25.7625 60.95 25.7625 59.42 24.6925 59.15L17.0525 57.21C16.4025 57.04 15.8925 56.54 15.7225 55.88L13.7825 48.24C13.5125 47.17 11.9825 47.17 11.7125 48.24L9.77248 55.88C9.60248 56.53 9.10249 57.04 8.44249 57.21L0.802495 59.15C-0.267504 59.42 -0.267504 60.95 0.802495 61.22L8.44249 63.16C9.09249 63.33 9.60248 63.83 9.77248 64.49L11.7125 72.13C11.9825 73.2 13.5125 73.2 13.7825 72.13Z" fill="#E4E4E4"/>
</svg>
